<?xml version="1.0" encoding="UTF-8"?>
<svg width="97px" height="97px" viewBox="0 0 97 97" version="1.1" xmlns="http://www.w3.org/2000/svg" xmlns:xlink="http://www.w3.org/1999/xlink">
    <title>Logos/Coloured/discovery</title>
    <g id="Overview" stroke="none" stroke-width="1" fill="none" fill-rule="evenodd">
        <g id="Products" transform="translate(-119.000000, -74.000000)">
            <g id="Logos/Coloured/discovery" transform="translate(119.000000, 74.500000)">
                <circle id="Oval" fill="#E5E7E7" fill-rule="nonzero" cx="48.1511554" cy="48.1511554" r="48.1511554"></circle>
                <path d="M67.1965161,63.6617027 C75.9601326,53.178173 74.9770386,37.6673702 64.9599493,28.3741849 C54.94286,19.0809997 39.4019873,19.2619717 29.6040216,28.7859014 C19.8060558,38.3098312 19.1844232,53.8393208 28.1897896,64.1159324 C37.1951561,74.392544 52.67184,75.8151232 63.399686,67.3523405 L70.9753099,74.9204692 C71.1316864,75.0763973 71.3848391,75.0763377 71.5411422,74.9203361 L74.7115874,71.7500452 C74.8676193,71.5937596 74.8676839,71.3405943 74.7117318,71.1842292 L67.1965161,63.6617027 L67.1965161,63.6617027 Z M47.5463091,67.5796236 C36.3402412,67.5773875 27.2577058,58.4913064 27.2598735,47.2852385 C27.2620419,36.0791705 36.3480923,26.9966045 47.5541603,26.9987343 C58.7602282,27.0008649 67.8428249,36.0868847 67.8407328,47.2929527 C67.8276291,58.494566 58.7479266,67.5708 47.5463091,67.5796236 L47.5463091,67.5796236 Z" id="Shape" fill="#FF6E00"></path>
                <circle id="Oval" fill="#6E6E6E" cx="37.7620025" cy="47.4279797" r="2.2734375"></circle>
                <circle id="Oval" fill="#6E6E6E" cx="46.8557525" cy="47.4279797" r="2.2734375"></circle>
                <circle id="Oval" fill="#6E6E6E" cx="55.9495025" cy="47.4279797" r="2.2734375"></circle>
            </g>
        </g>
    </g>
</svg>